HIERARCHY
ROOT mixamorig:Hips
{
	OFFSET 0.000000 201.639420 0.000000
	CHANNELS 6 Xposition Yposition Zposition Xrotation Yrotation Zrotation
	JOINT mixamorig:Spine
	{
		OFFSET 0.006200 19.524994 -2.481800
		CHANNELS 3 Xrotation Yrotation Zrotation
		JOINT mixamorig:Spine1
		{
			OFFSET -0.000900 22.835007 -2.825400
			CHANNELS 3 Xrotation Yrotation Zrotation
			JOINT mixamorig:Spine2
			{
				OFFSET -0.020600 26.552490 -3.193300
				CHANNELS 3 Xrotation Yrotation Zrotation
				JOINT mixamorig:Neck
				{
					OFFSET -0.060000 30.701813 1.352200
					CHANNELS 3 Xrotation Yrotation Zrotation
					JOINT mixamorig:Head
					{
						OFFSET -0.087200 22.547607 3.670900
						CHANNELS 3 Xrotation Yrotation Zrotation
						JOINT mixamorig:HeadTop_End
						{
							OFFSET -0.830600 40.355194 7.893500
							CHANNELS 3 Xrotation Yrotation Zrotation
							End Site
							{
								OFFSET 0.000000 30.592346 0.000000
							}
						}
						JOINT mixamorig:RightEye
						{
							OFFSET -6.302100 18.118591 16.197100
							CHANNELS 3 Xrotation Yrotation Zrotation
							End Site
							{
								OFFSET 0.000000 30.592346 0.000000
							}
						}
						JOINT mixamorig:LeftEye
						{
							OFFSET 6.741500 18.382690 16.401899
							CHANNELS 3 Xrotation Yrotation Zrotation
							End Site
							{
								OFFSET 0.000000 30.592346 0.000000
							}
						}
					}
				}
				JOINT mixamorig:LeftShoulder
				{
					OFFSET 11.924900 18.230499 1.425400
					CHANNELS 3 Xrotation Yrotation Zrotation
					JOINT mixamorig:LeftArm
					{
						OFFSET 25.435989 -0.697632 -5.229300
						CHANNELS 3 Xrotation Yrotation Zrotation
						JOINT mixamorig:LeftForeArm
						{
							OFFSET 54.684776 0.000000 0.000000
							CHANNELS 3 Xrotation Yrotation Zrotation
							JOINT mixamorig:LeftHand
							{
								OFFSET 55.098175 0.000000 0.000000
								CHANNELS 3 Xrotation Yrotation Zrotation
								JOINT mixamorig:LeftHandMiddle1
								{
									OFFSET 23.369751 0.000000 0.000000
									CHANNELS 3 Xrotation Yrotation Zrotation
									JOINT mixamorig:LeftHandMiddle2
									{
										OFFSET 6.378677 0.000000 0.000000
										CHANNELS 3 Xrotation Yrotation Zrotation
										JOINT mixamorig:LeftHandMiddle3
										{
											OFFSET 6.148331 0.000000 0.000000
											CHANNELS 3 Xrotation Yrotation Zrotation
											JOINT mixamorig:LeftHandMiddle4
											{
												OFFSET 6.582504 0.000000 0.000000
												CHANNELS 3 Xrotation Yrotation Zrotation
												End Site
												{
													OFFSET -1.168900 6.395691 1.028606
												}
											}
										}
									}
								}
								JOINT mixamorig:LeftHandThumb1
								{
									OFFSET 7.235672 -3.848206 5.434273
									CHANNELS 3 Xrotation Yrotation Zrotation
									JOINT mixamorig:LeftHandThumb2
									{
										OFFSET 6.568451 -3.792297 3.792300
										CHANNELS 3 Xrotation Yrotation Zrotation
										JOINT mixamorig:LeftHandThumb3
										{
											OFFSET 6.063080 -3.500519 3.500518
											CHANNELS 3 Xrotation Yrotation Zrotation
											JOINT mixamorig:LeftHandThumb4
											{
												OFFSET 4.793182 -2.767334 2.767349
												CHANNELS 3 Xrotation Yrotation Zrotation
												End Site
												{
													OFFSET 0.101639 6.054260 1.275483
												}
											}
										}
									}
								}
								JOINT mixamorig:LeftHandIndex1
								{
									OFFSET 23.101074 -0.309540 4.992809
									CHANNELS 3 Xrotation Yrotation Zrotation
									JOINT mixamorig:LeftHandIndex2
									{
										OFFSET 6.226883 0.000000 0.000000
										CHANNELS 3 Xrotation Yrotation Zrotation
										JOINT mixamorig:LeftHandIndex3
										{
											OFFSET 6.094330 0.000000 0.000000
											CHANNELS 3 Xrotation Yrotation Zrotation
											JOINT mixamorig:LeftHandIndex4
											{
												OFFSET 5.482605 0.000000 0.000000
												CHANNELS 3 Xrotation Yrotation Zrotation
												End Site
												{
													OFFSET -1.427902 5.233032 0.797164
												}
											}
										}
									}
								}
								JOINT mixamorig:LeftHandRing1
								{
									OFFSET 22.299240 0.021149 -3.964172
									CHANNELS 3 Xrotation Yrotation Zrotation
									JOINT mixamorig:LeftHandRing2
									{
										OFFSET 6.321869 0.000000 0.000000
										CHANNELS 3 Xrotation Yrotation Zrotation
										JOINT mixamorig:LeftHandRing3
										{
											OFFSET 5.899796 0.000000 0.000000
											CHANNELS 3 Xrotation Yrotation Zrotation
											JOINT mixamorig:LeftHandRing4
											{
												OFFSET 6.517899 0.000000 0.000000
												CHANNELS 3 Xrotation Yrotation Zrotation
												End Site
												{
													OFFSET -1.637299 6.232208 0.980890
												}
											}
										}
									}
								}
								JOINT mixamorig:LeftHandPinky1
								{
									OFFSET 20.463791 -0.302338 -8.562233
									CHANNELS 3 Xrotation Yrotation Zrotation
									JOINT mixamorig:LeftHandPinky2
									{
										OFFSET 6.908646 0.000000 0.000000
										CHANNELS 3 Xrotation Yrotation Zrotation
										JOINT mixamorig:LeftHandPinky3
										{
											OFFSET 4.622849 0.000000 0.000000
											CHANNELS 3 Xrotation Yrotation Zrotation
											JOINT mixamorig:LeftHandPinky4
											{
												OFFSET 5.216080 0.000000 0.000000
												CHANNELS 3 Xrotation Yrotation Zrotation
												End Site
												{
													OFFSET -0.606308 5.116241 0.814926
												}
											}
										}
									}
								}
							}
						}
					}
				}
				JOINT mixamorig:RightShoulder
				{
					OFFSET -12.001300 18.284088 1.348900
					CHANNELS 3 Xrotation Yrotation Zrotation
					JOINT mixamorig:RightArm
					{
						OFFSET -25.308500 -0.751312 -5.164599
						CHANNELS 3 Xrotation Yrotation Zrotation
						JOINT mixamorig:RightForeArm
						{
							OFFSET -54.684429 0.000000 0.000000
							CHANNELS 3 Xrotation Yrotation Zrotation
							JOINT mixamorig:RightHand
							{
								OFFSET -55.150291 0.000000 0.000000
								CHANNELS 3 Xrotation Yrotation Zrotation
								JOINT mixamorig:RightHandMiddle1
								{
									OFFSET -23.317566 0.000000 0.000000
									CHANNELS 3 Xrotation Yrotation Zrotation
									JOINT mixamorig:RightHandMiddle2
									{
										OFFSET -6.378403 0.000000 0.000000
										CHANNELS 3 Xrotation Yrotation Zrotation
										JOINT mixamorig:RightHandMiddle3
										{
											OFFSET -6.148193 0.000000 0.000000
											CHANNELS 3 Xrotation Yrotation Zrotation
											JOINT mixamorig:RightHandMiddle4
											{
												OFFSET -6.583389 0.000000 0.000000
												CHANNELS 3 Xrotation Yrotation Zrotation
												End Site
												{
													OFFSET 1.171692 6.395905 1.029786
												}
											}
										}
									}
								}
								JOINT mixamorig:RightHandThumb1
								{
									OFFSET -7.190521 -3.860474 5.435846
									CHANNELS 3 Xrotation Yrotation Zrotation
									JOINT mixamorig:RightHandThumb2
									{
										OFFSET -6.567429 -3.791718 3.791708
										CHANNELS 3 Xrotation Yrotation Zrotation
										JOINT mixamorig:RightHandThumb3
										{
											OFFSET -6.062469 -3.500153 3.500166
											CHANNELS 3 Xrotation Yrotation Zrotation
											JOINT mixamorig:RightHandThumb4
											{
												OFFSET -4.792618 -2.767029 2.767022
												CHANNELS 3 Xrotation Yrotation Zrotation
												End Site
												{
													OFFSET -0.100327 6.053253 1.276754
												}
											}
										}
									}
								}
								JOINT mixamorig:RightHandIndex1
								{
									OFFSET -23.048981 -0.310791 4.992554
									CHANNELS 3 Xrotation Yrotation Zrotation
									JOINT mixamorig:RightHandIndex2
									{
										OFFSET -6.227539 0.000000 0.000000
										CHANNELS 3 Xrotation Yrotation Zrotation
										JOINT mixamorig:RightHandIndex3
										{
											OFFSET -6.095047 0.000000 0.000000
											CHANNELS 3 Xrotation Yrotation Zrotation
											JOINT mixamorig:RightHandIndex4
											{
												OFFSET -5.484772 0.000000 0.000000
												CHANNELS 3 Xrotation Yrotation Zrotation
												End Site
												{
													OFFSET 1.420593 5.237305 0.797056
												}
											}
										}
									}
								}
								JOINT mixamorig:RightHandRing1
								{
									OFFSET -22.246323 0.020569 -3.963762
									CHANNELS 3 Xrotation Yrotation Zrotation
									JOINT mixamorig:RightHandRing2
									{
										OFFSET -6.322128 0.000000 0.000000
										CHANNELS 3 Xrotation Yrotation Zrotation
										JOINT mixamorig:RightHandRing3
										{
											OFFSET -5.900024 0.000000 0.000000
											CHANNELS 3 Xrotation Yrotation Zrotation
											JOINT mixamorig:RightHandRing4
											{
												OFFSET -6.518356 0.000000 0.000000
												CHANNELS 3 Xrotation Yrotation Zrotation
												End Site
												{
													OFFSET 1.636398 6.232697 0.982186
												}
											}
										}
									}
								}
								JOINT mixamorig:RightHandPinky1
								{
									OFFSET -20.411011 -0.303314 -8.561701
									CHANNELS 3 Xrotation Yrotation Zrotation
									JOINT mixamorig:RightHandPinky2
									{
										OFFSET -6.907349 0.000000 0.000000
										CHANNELS 3 Xrotation Yrotation Zrotation
										JOINT mixamorig:RightHandPinky3
										{
											OFFSET -4.623840 0.000000 0.000000
											CHANNELS 3 Xrotation Yrotation Zrotation
											JOINT mixamorig:RightHandPinky4
											{
												OFFSET -5.218353 0.000000 0.000000
												CHANNELS 3 Xrotation Yrotation Zrotation
												End Site
												{
													OFFSET 0.602097 5.118835 0.816273
												}
											}
										}
									}
								}
							}
						}
					}
				}
			}
		}
	}
	JOINT mixamorig:LeftUpLeg
	{
		OFFSET 18.168400 -13.561905 -0.039000
		CHANNELS 3 Xrotation Yrotation Zrotation
		JOINT mixamorig:LeftLeg
		{
			OFFSET 0.577358 -80.825211 -3.695000
			CHANNELS 3 Xrotation Yrotation Zrotation
			JOINT mixamorig:LeftFoot
			{
				OFFSET -0.577356 -83.370262 -6.520700
				CHANNELS 3 Xrotation Yrotation Zrotation
				JOINT mixamorig:LeftToeBase
				{
					OFFSET 0.750401 -20.798306 25.135401
					CHANNELS 3 Xrotation Yrotation Zrotation
					JOINT mixamorig:LeftToe_End
					{
						OFFSET -0.000500 0.001200 19.917799
						CHANNELS 3 Xrotation Yrotation Zrotation
						End Site
						{
							OFFSET 0.000000 19.917805 0.000000
						}
					}
				}
			}
		}
	}
	JOINT mixamorig:RightUpLeg
	{
		OFFSET -18.162500 -13.585098 -0.041000
		CHANNELS 3 Xrotation Yrotation Zrotation
		JOINT mixamorig:RightLeg
		{
			OFFSET -0.595024 -80.945297 -3.631900
			CHANNELS 3 Xrotation Yrotation Zrotation
			JOINT mixamorig:RightFoot
			{
				OFFSET 0.595024 -83.218193 -6.561200
				CHANNELS 3 Xrotation Yrotation Zrotation
				JOINT mixamorig:RightToeBase
				{
					OFFSET -0.753601 -20.807106 25.115000
					CHANNELS 3 Xrotation Yrotation Zrotation
					JOINT mixamorig:RightToe_End
					{
						OFFSET 0.000299 0.001700 19.918200
						CHANNELS 3 Xrotation Yrotation Zrotation
						End Site
						{
							OFFSET 0.000000 19.918203 0.000000
						}
					}
				}
			}
		}
	}
}
MOTION
Frames: 5
Frame Time: 0.033333
-0.640491 180.939804 -244.179398 -1.499117 45.582787 1.953630 1.473501 1.377606 3.841181 2.694323 2.928889 0.781823 2.651060 2.963770 0.793157 13.639200 6.423161 -3.928114 0.947155 28.068123 8.623723 -0.000001 -0.000001 -0.000000 -0.000001 -0.000001 -0.000000 -0.000001 -0.000001 -0.000000 1.331737 -12.390492 -10.527015 -47.361836 -13.225383 -43.086141 -0.000014 -64.467874 -0.000009 -106.325179 19.602909 7.133491 0.460197 2.479388 -21.026804 0.461566 2.482997 -21.058815 0.460891 2.481194 -21.042812 -0.000000 -0.000002 -0.000002 -0.329779 -15.770060 7.158055 3.939052 7.948723 0.746808 -0.579458 1.574998 2.538717 -0.000001 -0.000002 0.000002 0.460886 2.481192 -21.042812 0.460875 2.481200 -21.042805 0.460888 2.481206 -21.042826 -0.000002 0.000002 0.000003 0.541882 2.682047 -22.840749 0.541882 2.682027 -22.840735 0.541884 2.682027 -22.840742 -0.000001 -0.000001 -0.000001 2.453798 6.666632 -25.490080 0.699377 -1.047985 -26.312711 0.691470 3.012242 -25.851742 -0.000001 0.000001 -0.000002 1.478816 31.277813 10.772891 -33.511435 30.457320 49.315854 -0.000144 107.687884 0.000123 -50.544380 -37.183113 -33.135607 5.893964 -6.868169 81.251657 5.893981 -6.868175 81.251678 3.128359 -5.808287 56.584579 0.000000 -0.000001 0.000001 24.742884 -13.971768 11.207079 7.335541 -24.090810 -5.399708 -6.242372 -25.343779 -16.662134 -0.000001 0.000003 0.000001 0.145416 10.767195 -0.131849 4.502379 -6.505462 69.343318 5.526487 -6.801898 78.164589 0.000002 0.000000 -0.000001 5.893974 -6.868188 81.251664 5.893979 -6.868165 81.251678 3.128348 -5.808275 56.584586 0.000001 0.000001 -0.000004 5.893970 -6.868152 81.251671 5.893961 -6.868167 81.251678 3.128357 -5.808287 56.584576 0.000001 0.000000 0.000001 -16.374882 -2.156160 7.096546 54.970411 7.429963 10.859602 -13.565078 6.107325 18.410551 -32.084079 0.000001 0.000005 0.000000 0.000000 -0.000002 -41.806102 -9.193863 -18.045727 49.716745 9.692055 7.050691 -9.228042 -23.455419 -2.220032 -0.617756 -0.000010 -0.000001 0.000000 -0.000001 -0.000000 
-0.185510 181.892197 -258.580719 -0.439681 46.194799 2.247687 1.314457 1.398863 3.781156 2.287904 2.875988 0.908169 2.242998 2.905122 0.922494 13.303895 6.788989 -4.522298 0.850077 29.560359 8.474521 -0.000000 0.000000 0.000003 -0.000000 0.000000 0.000003 -0.000000 0.000000 0.000003 1.370491 -12.456654 -10.891639 -46.658921 -11.952780 -43.262808 0.000032 -65.353682 0.000032 -106.750427 19.626275 6.936876 0.460193 2.479387 -21.026806 0.461568 2.482991 -21.058814 0.460896 2.481193 -21.042812 0.000002 -0.000002 -0.000002 -0.329779 -15.770056 7.158055 3.939053 7.948720 0.746809 -0.579459 1.574993 2.538716 0.000000 0.000003 -0.000002 0.460888 2.481192 -21.042816 0.460880 2.481203 -21.042804 0.460887 2.481204 -21.042826 0.000004 0.000000 -0.000001 0.541879 2.682050 -22.840752 0.541879 2.682030 -22.840733 0.541882 2.682029 -22.840745 0.000000 0.000002 -0.000001 2.453794 6.666630 -25.490080 0.699369 -1.047983 -26.312706 0.691471 3.012242 -25.851742 0.000000 -0.000001 0.000002 1.306821 30.115855 10.685517 -32.773546 31.925441 49.365513 -0.000068 107.668090 0.000050 -50.381576 -37.304311 -33.216812 5.893965 -6.868168 81.251657 5.893979 -6.868175 81.251678 3.128359 -5.808284 56.584583 0.000001 -0.000001 0.000001 24.742886 -13.971767 11.207078 7.335538 -24.090822 -5.399708 -6.242378 -25.343781 -16.662134 0.000003 -0.000000 0.000001 0.145418 10.767195 -0.131850 4.502380 -6.505462 69.343318 5.526488 -6.801897 78.164589 -0.000000 -0.000001 -0.000003 5.893974 -6.868185 81.251664 5.893978 -6.868165 81.251678 3.128347 -5.808278 56.584579 -0.000000 0.000001 -0.000002 5.893970 -6.868153 81.251671 5.893961 -6.868169 81.251678 3.128358 -5.808290 56.584579 -0.000003 0.000001 -0.000003 -12.859610 -2.010910 5.143378 49.960740 9.431338 10.726699 -19.873791 3.710294 15.290801 -24.719585 -0.000014 0.000003 -0.000001 0.000000 -0.000001 -42.886092 -6.594171 -20.684099 42.282221 9.628863 6.077059 0.619277 -24.803415 2.993392 -0.285636 0.000003 -0.000004 -0.000000 -0.000000 0.000000 
0.293105 182.612061 -273.681854 0.718840 46.801983 2.493215 1.137800 1.397932 3.797559 1.851081 2.827998 1.005357 1.804824 2.850645 1.022716 12.946729 7.197487 -5.158519 0.760080 31.268148 8.262421 0.000000 -0.000000 0.000000 0.000000 -0.000000 0.000000 0.000000 -0.000000 0.000000 1.409442 -12.492947 -11.273875 -45.868661 -10.565377 -43.463871 0.000062 -66.326649 0.000049 -107.204976 19.658609 6.721856 0.460193 2.479390 -21.026801 0.461569 2.482999 -21.058819 0.460890 2.481193 -21.042811 0.000001 0.000004 -0.000001 -0.329781 -15.770056 7.158049 3.939050 7.948720 0.746807 -0.579459 1.574997 2.538719 -0.000002 0.000001 -0.000001 0.460890 2.481194 -21.042811 0.460884 2.481201 -21.042807 0.460882 2.481205 -21.042821 -0.000001 0.000000 0.000001 0.541876 2.682051 -22.840747 0.541875 2.682024 -22.840737 0.541879 2.682031 -22.840743 -0.000001 0.000000 0.000001 2.453797 6.666631 -25.490082 0.699374 -1.047981 -26.312711 0.691471 3.012242 -25.851742 0.000001 -0.000000 0.000002 1.158006 28.936605 10.599935 -32.013824 33.431532 49.496564 0.000108 107.652497 -0.000114 -50.447265 -37.409868 -33.280496 5.893964 -6.868170 81.251657 5.893981 -6.868176 81.251684 3.128359 -5.808287 56.584583 0.000002 0.000001 -0.000000 24.742881 -13.971769 11.207079 7.335541 -24.090817 -5.399708 -6.242376 -25.343777 -16.662135 0.000003 0.000006 0.000000 0.145415 10.767196 -0.131848 4.502379 -6.505465 69.343325 5.526489 -6.801900 78.164582 -0.000000 0.000000 0.000002 5.893973 -6.868185 81.251664 5.893978 -6.868165 81.251671 3.128347 -5.808278 56.584586 0.000001 0.000000 0.000001 5.893970 -6.868152 81.251671 5.893960 -6.868168 81.251678 3.128356 -5.808288 56.584576 -0.000001 0.000001 -0.000005 -9.907997 -1.749624 3.013604 44.698773 11.312511 10.568749 -25.271323 1.501285 12.066702 -17.201316 0.000006 0.000016 0.000000 0.000002 -0.000001 -41.542112 -5.004635 -23.275995 30.010956 9.639990 5.134395 13.102862 -25.750486 8.921137 -0.000082 -0.000008 0.000006 0.000000 -0.000000 -0.000000 
0.293105 182.612061 -273.681854 0.718840 46.801983 2.493215 1.137800 1.397932 3.797559 1.851081 2.827998 1.005357 1.804824 2.850645 1.022716 12.946729 7.197487 -5.158519 0.760080 31.268148 8.262421 0.000000 -0.000000 0.000000 0.000000 -0.000000 0.000000 0.000000 -0.000000 0.000000 1.409442 -12.492947 -11.273875 -45.868661 -10.565377 -43.463871 0.000062 -66.326649 0.000049 -107.204976 19.658609 6.721856 0.460193 2.479390 -21.026801 0.461569 2.482999 -21.058819 0.460890 2.481193 -21.042811 0.000001 0.000004 -0.000001 -0.329781 -15.770056 7.158049 3.939050 7.948720 0.746807 -0.579459 1.574997 2.538719 -0.000002 0.000001 -0.000001 0.460890 2.481194 -21.042811 0.460884 2.481201 -21.042807 0.460882 2.481205 -21.042821 -0.000001 0.000000 0.000001 0.541876 2.682051 -22.840747 0.541875 2.682024 -22.840737 0.541879 2.682031 -22.840743 -0.000001 0.000000 0.000001 2.453797 6.666631 -25.490082 0.699374 -1.047981 -26.312711 0.691471 3.012242 -25.851742 0.000001 -0.000000 0.000002 1.158006 28.936605 10.599935 -32.013824 33.431532 49.496564 0.000108 107.652497 -0.000114 -50.447265 -37.409868 -33.280496 5.893964 -6.868170 81.251657 5.893981 -6.868176 81.251684 3.128359 -5.808287 56.584583 0.000002 0.000001 -0.000000 24.742881 -13.971769 11.207079 7.335541 -24.090817 -5.399708 -6.242376 -25.343777 -16.662135 0.000003 0.000006 0.000000 0.145415 10.767196 -0.131848 4.502379 -6.505465 69.343325 5.526489 -6.801900 78.164582 -0.000000 0.000000 0.000002 5.893973 -6.868185 81.251664 5.893978 -6.868165 81.251671 3.128347 -5.808278 56.584586 0.000001 0.000000 0.000001 5.893970 -6.868152 81.251671 5.893960 -6.868168 81.251678 3.128356 -5.808288 56.584576 -0.000001 0.000001 -0.000005 -9.907997 -1.749624 3.013604 44.698773 11.312511 10.568749 -25.271323 1.501285 12.066702 -17.201316 0.000006 0.000016 0.000000 0.000002 -0.000001 -41.542112 -5.004635 -23.275995 30.010956 9.639990 5.134395 13.102862 -25.750486 8.921137 -0.000082 -0.000008 0.000006 0.000000 -0.000000 -0.000000 
0.293105 182.612061 -273.681854 0.718840 46.801983 2.493215 1.137800 1.397932 3.797559 1.851081 2.827998 1.005357 1.804824 2.850645 1.022716 12.946729 7.197487 -5.158519 0.760080 31.268148 8.262421 0.000000 -0.000000 0.000000 0.000000 -0.000000 0.000000 0.000000 -0.000000 0.000000 1.409442 -12.492947 -11.273875 -45.868661 -10.565377 -43.463871 0.000062 -66.326649 0.000049 -107.204976 19.658609 6.721856 0.460193 2.479390 -21.026801 0.461569 2.482999 -21.058819 0.460890 2.481193 -21.042811 0.000001 0.000004 -0.000001 -0.329781 -15.770056 7.158049 3.939050 7.948720 0.746807 -0.579459 1.574997 2.538719 -0.000002 0.000001 -0.000001 0.460890 2.481194 -21.042811 0.460884 2.481201 -21.042807 0.460882 2.481205 -21.042821 -0.000001 0.000000 0.000001 0.541876 2.682051 -22.840747 0.541875 2.682024 -22.840737 0.541879 2.682031 -22.840743 -0.000001 0.000000 0.000001 2.453797 6.666631 -25.490082 0.699374 -1.047981 -26.312711 0.691471 3.012242 -25.851742 0.000001 -0.000000 0.000002 1.158006 28.936605 10.599935 -32.013824 33.431532 49.496564 0.000108 107.652497 -0.000114 -50.447265 -37.409868 -33.280496 5.893964 -6.868170 81.251657 5.893981 -6.868176 81.251684 3.128359 -5.808287 56.584583 0.000002 0.000001 -0.000000 24.742881 -13.971769 11.207079 7.335541 -24.090817 -5.399708 -6.242376 -25.343777 -16.662135 0.000003 0.000006 0.000000 0.145415 10.767196 -0.131848 4.502379 -6.505465 69.343325 5.526489 -6.801900 78.164582 -0.000000 0.000000 0.000002 5.893973 -6.868185 81.251664 5.893978 -6.868165 81.251671 3.128347 -5.808278 56.584586 0.000001 0.000000 0.000001 5.893970 -6.868152 81.251671 5.893960 -6.868168 81.251678 3.128356 -5.808288 56.584576 -0.000001 0.000001 -0.000005 -9.907997 -1.749624 3.013604 44.698773 11.312511 10.568749 -25.271323 1.501285 12.066702 -17.201316 0.000006 0.000016 0.000000 0.000002 -0.000001 -41.542112 -5.004635 -23.275995 30.010956 9.639990 5.134395 13.102862 -25.750486 8.921137 -0.000082 -0.000008 0.000006 0.000000 -0.000000 -0.000000 
